<svg width="211" height="31" viewBox="0 0 211 31" fill="none" xmlns="http://www.w3.org/2000/svg">
<path d="M201.645 30.16C199.325 30.16 197.285 29.7333 195.525 28.88C193.765 28 192.392 26.8 191.405 25.28C190.445 23.7333 189.965 21.9467 189.965 19.92C189.965 17.68 190.432 15.76 191.365 14.16C192.298 12.56 193.538 11.3333 195.085 10.48C196.658 9.6 198.392 9.16 200.285 9.16C202.445 9.16 204.245 9.61334 205.685 10.52C207.152 11.4267 208.258 12.6667 209.005 14.24C209.752 15.7867 210.125 17.56 210.125 19.56C210.125 19.9067 210.098 20.32 210.045 20.8C210.018 21.2533 209.978 21.6133 209.925 21.88H196.485C196.645 22.5733 196.952 23.16 197.405 23.64C197.858 24.12 198.432 24.48 199.125 24.72C199.818 24.9333 200.592 25.04 201.445 25.04H207.725V30.16H201.645ZM196.325 18H204.125C204.072 17.5733 203.992 17.16 203.885 16.76C203.778 16.36 203.605 16.0133 203.365 15.72C203.152 15.4 202.898 15.1333 202.605 14.92C202.312 14.68 201.965 14.4933 201.565 14.36C201.192 14.2267 200.765 14.16 200.285 14.16C199.672 14.16 199.125 14.2667 198.645 14.48C198.165 14.6933 197.765 14.9867 197.445 15.36C197.125 15.7067 196.872 16.12 196.685 16.6C196.525 17.0533 196.405 17.52 196.325 18Z" fill="black"/>
<path d="M180.144 30.16V9.64H186.384V30.16H180.144ZM183.264 7.32C182.277 7.32 181.424 6.96 180.704 6.24C179.984 5.52 179.624 4.66666 179.624 3.68C179.624 2.69333 179.984 1.84 180.704 1.12C181.424 0.373332 182.277 0 183.264 0C184.25 0 185.104 0.373332 185.824 1.12C186.544 1.84 186.904 2.69333 186.904 3.68C186.904 4.66666 186.544 5.52 185.824 6.24C185.104 6.96 184.25 7.32 183.264 7.32Z" fill="black"/>
<path d="M148.149 30.64C146.336 30.64 144.736 30.1733 143.349 29.24C141.963 28.3067 140.883 27.0533 140.109 25.48C139.336 23.88 138.949 22.08 138.949 20.08C138.949 18 139.403 16.1467 140.309 14.52C141.216 12.8667 142.496 11.56 144.149 10.6C145.829 9.64 147.803 9.16 150.069 9.16C152.363 9.16 154.309 9.64 155.909 10.6C157.536 11.5333 158.776 12.8267 159.629 14.48C160.509 16.1067 160.949 17.9333 160.949 19.96V30.16H154.869V26.88H154.709C154.336 27.6 153.856 28.2533 153.269 28.84C152.683 29.4 151.963 29.84 151.109 30.16C150.283 30.48 149.296 30.64 148.149 30.64ZM149.989 25.28C150.923 25.28 151.736 25.0533 152.429 24.6C153.149 24.12 153.696 23.4667 154.069 22.64C154.443 21.8133 154.629 20.8933 154.629 19.88C154.629 18.8933 154.443 18 154.069 17.2C153.696 16.4 153.149 15.7733 152.429 15.32C151.736 14.84 150.923 14.6 149.989 14.6C149.029 14.6 148.189 14.84 147.469 15.32C146.749 15.7733 146.203 16.4 145.829 17.2C145.456 18 145.269 18.8933 145.269 19.88C145.269 20.8933 145.456 21.8133 145.829 22.64C146.203 23.4667 146.749 24.12 147.469 24.6C148.189 25.0533 149.029 25.28 149.989 25.28Z" fill="black"/>
<path d="M86.7679 30.64C85.3545 30.64 84.0345 30.36 82.8079 29.8C81.6079 29.24 80.6345 28.3867 79.8879 27.24C79.1679 26.0933 78.8079 24.6533 78.8079 22.92V9.64001H85.0079V23.72C85.0079 24.04 85.0879 24.3333 85.2479 24.6C85.4079 24.8667 85.6212 25.08 85.8879 25.24C86.1545 25.4 86.4479 25.48 86.7679 25.48C87.0879 25.48 87.3812 25.4 87.6479 25.24C87.9145 25.08 88.1279 24.8667 88.2879 24.6C88.4479 24.3333 88.5279 24.04 88.5279 23.72V16.88C88.5279 15.2267 88.8745 13.8267 89.5679 12.68C90.2612 11.5333 91.2079 10.6667 92.4079 10.08C93.6345 9.46667 95.0079 9.16 96.5279 9.16C98.0479 9.16 99.4079 9.46667 100.608 10.08C101.808 10.6667 102.755 11.5333 103.448 12.68C104.141 13.8267 104.488 15.2267 104.488 16.88V23.72C104.488 24.04 104.568 24.3333 104.728 24.6C104.888 24.8667 105.101 25.08 105.368 25.24C105.661 25.4 105.968 25.48 106.288 25.48C106.608 25.48 106.901 25.4 107.168 25.24C107.435 25.08 107.648 24.8667 107.808 24.6C107.968 24.3333 108.048 24.04 108.048 23.72V9.64001H114.248V22.92C114.248 24.6533 113.875 26.0933 113.128 27.24C112.408 28.3867 111.435 29.24 110.208 29.8C109.008 30.36 107.701 30.64 106.288 30.64C104.875 30.64 103.555 30.36 102.328 29.8C101.128 29.24 100.155 28.3867 99.4079 27.24C98.6612 26.0933 98.2879 24.6533 98.2879 22.92V16.12C98.2879 15.7733 98.2079 15.4667 98.0479 15.2C97.8879 14.9333 97.6745 14.72 97.4079 14.56C97.1412 14.4 96.8479 14.32 96.5279 14.32C96.2079 14.32 95.9012 14.4 95.6079 14.56C95.3412 14.72 95.1279 14.9333 94.9679 15.2C94.8079 15.4667 94.7279 15.7733 94.7279 16.12V22.92C94.7279 24.6533 94.3545 26.0933 93.6079 27.24C92.8879 28.3867 91.9145 29.24 90.6879 29.8C89.4879 30.36 88.1812 30.64 86.7679 30.64Z" fill="black"/>
<path d="M61.4228 30.64C59.6094 30.64 58.0094 30.1733 56.6228 29.24C55.2361 28.3067 54.1561 27.0533 53.3828 25.48C52.6094 23.88 52.2228 22.08 52.2228 20.08C52.2228 18 52.6761 16.1467 53.5828 14.52C54.4894 12.8667 55.7694 11.56 57.4228 10.6C59.1028 9.64 61.0761 9.16 63.3428 9.16C65.6361 9.16 67.5828 9.64 69.1828 10.6C70.8094 11.5333 72.0494 12.8267 72.9028 14.48C73.7828 16.1067 74.2228 17.9333 74.2228 19.96V30.16H68.1428V26.88H67.9828C67.6094 27.6 67.1294 28.2533 66.5428 28.84C65.9561 29.4 65.2361 29.84 64.3828 30.16C63.5561 30.48 62.5694 30.64 61.4228 30.64ZM63.2628 25.28C64.1961 25.28 65.0094 25.0533 65.7028 24.6C66.4228 24.12 66.9694 23.4667 67.3428 22.64C67.7161 21.8133 67.9028 20.8933 67.9028 19.88C67.9028 18.8933 67.7161 18 67.3428 17.2C66.9694 16.4 66.4228 15.7733 65.7028 15.32C65.0094 14.84 64.1961 14.6 63.2628 14.6C62.3028 14.6 61.4628 14.84 60.7428 15.32C60.0228 15.7733 59.4761 16.4 59.1028 17.2C58.7294 18 58.5428 18.8933 58.5428 19.88C58.5428 20.8933 58.7294 21.8133 59.1028 22.64C59.4761 23.4667 60.0228 24.12 60.7428 24.6C61.4628 25.0533 62.3028 25.28 63.2628 25.28Z" fill="black"/>
<path d="M28.945 30.16C27.0517 30.16 25.5717 29.6267 24.505 28.56C23.4384 27.4667 22.905 26 22.905 24.16V4.64001H29.145V23.8C29.145 24.12 29.2517 24.4 29.465 24.64C29.705 24.8533 29.985 24.96 30.305 24.96H34.785V30.16H28.945ZM19.545 14.72V9.64001H34.785V14.72H19.545Z" fill="black"/>
<path d="M0.84 30.16V25.24H10.72C10.9867 25.24 11.2267 25.1867 11.44 25.08C11.6533 24.9467 11.8267 24.7734 11.96 24.56C12.0933 24.3467 12.16 24.12 12.16 23.88C12.16 23.6133 12.0933 23.3733 11.96 23.16C11.8267 22.9467 11.6533 22.7867 11.44 22.68C11.2267 22.5467 10.9867 22.48 10.72 22.48H7.12C5.78667 22.48 4.57333 22.2667 3.48 21.84C2.41333 21.3867 1.56 20.6933 0.92 19.76C0.306667 18.8 0 17.56 0 16.04C0 14.8667 0.28 13.8 0.84 12.84C1.42667 11.88 2.21333 11.1067 3.2 10.52C4.21333 9.93335 5.32 9.64001 6.52 9.64001H16.4V14.6H7.48C7.10667 14.6 6.78667 14.72 6.52 14.96C6.28 15.2 6.16 15.4933 6.16 15.84C6.16 16.2133 6.28 16.5333 6.52 16.8C6.78667 17.04 7.10667 17.16 7.48 17.16H11C12.4933 17.16 13.7733 17.3867 14.84 17.84C15.9333 18.2667 16.7733 18.96 17.36 19.92C17.9733 20.88 18.28 22.12 18.28 23.64C18.28 24.84 17.9733 25.9333 17.36 26.92C16.7733 27.9067 15.9733 28.6933 14.96 29.28C13.9733 29.8667 12.8533 30.16 11.6 30.16H0.84Z" fill="black"/>
<path fill-rule="evenodd" clip-rule="evenodd" d="M119.98 7.06084C121.109 10.188 122.875 10.4731 125.979 10.1907C125.979 10.1907 125.872 9.06117 124.916 7.89542C123.96 6.72967 119.98 7.06084 119.98 7.06084ZM134.006 7.09154C132.877 10.2187 131.112 10.5038 128.008 10.2214C128.008 10.2214 128.114 9.09187 129.07 7.92612C130.026 6.76037 134.006 7.09154 134.006 7.09154ZM127.078 30.592C125.974 30.592 124.966 30.304 124.054 29.728C123.142 29.152 122.518 28.372 122.182 27.388L116.926 11.692H116.994L116.98 11.66H136.98L136.966 11.692H137.23L131.974 27.388C131.638 28.372 131.014 29.152 130.102 29.728C129.214 30.304 128.206 30.592 127.078 30.592Z" fill="black"/>
<path fill-rule="evenodd" clip-rule="evenodd" d="M121.48 16.16C122.032 16.16 122.48 15.7123 122.48 15.16C122.48 14.6077 122.032 14.16 121.48 14.16C120.928 14.16 120.48 14.6077 120.48 15.16C120.48 15.7123 120.928 16.16 121.48 16.16ZM124.48 21.16C125.032 21.16 125.48 20.7123 125.48 20.16C125.48 19.6077 125.032 19.16 124.48 19.16C123.928 19.16 123.48 19.6077 123.48 20.16C123.48 20.7123 123.928 21.16 124.48 21.16ZM127.98 15.16C127.98 15.7123 127.532 16.16 126.98 16.16C126.428 16.16 125.98 15.7123 125.98 15.16C125.98 14.6077 126.428 14.16 126.98 14.16C127.532 14.16 127.98 14.6077 127.98 15.16ZM126.98 26.16C127.532 26.16 127.98 25.7123 127.98 25.16C127.98 24.6077 127.532 24.16 126.98 24.16C126.428 24.16 125.98 24.6077 125.98 25.16C125.98 25.7123 126.428 26.16 126.98 26.16ZM130.48 20.16C130.48 20.7123 130.032 21.16 129.48 21.16C128.928 21.16 128.48 20.7123 128.48 20.16C128.48 19.6077 128.928 19.16 129.48 19.16C130.032 19.16 130.48 19.6077 130.48 20.16ZM132.48 16.16C133.032 16.16 133.48 15.7123 133.48 15.16C133.48 14.6077 133.032 14.16 132.48 14.16C131.928 14.16 131.48 14.6077 131.48 15.16C131.48 15.7123 131.928 16.16 132.48 16.16Z" fill="white"/>
<path fill-rule="evenodd" clip-rule="evenodd" d="M44.48 9.66C42.5866 9.66 41.0528 10.2133 39.9861 11.28C38.9194 12.3467 38.3861 13.8133 38.3861 15.68V30.16H44.48V16.16V15.16V14.72V9.66ZM45.48 14.72H45.9461H50.3861V9.68001L45.48 9.66339V14.72Z" fill="black"/>
<path fill-rule="evenodd" clip-rule="evenodd" d="M165.48 16.16V30.64H171.68V16.56C171.68 16.4164 171.697 16.283 171.732 16.16H165.48ZM165.535 15.16H177.48V10.16H171.52C169.627 10.16 168.147 10.6933 167.08 11.76C166.212 12.6283 165.697 13.7616 165.535 15.16Z" fill="black"/>
</svg>
